<svg width="34" height="34" viewBox="0 0 34 34" fill="none" xmlns="http://www.w3.org/2000/svg">
<circle cx="17" cy="17" r="12" fill="black" fill-opacity="0.2"/>
<circle cx="17" cy="17" r="15.75" stroke="#FFB25F" stroke-width="1.5" stroke-dasharray="2 2"/>
<path d="M15.2501 22.5999C15.2713 22.6188 15.2982 22.6303 15.3266 22.6326C15.3549 22.6348 15.3833 22.6278 15.4073 22.6125C15.4313 22.5971 15.4496 22.5744 15.4595 22.5477C15.4694 22.521 15.4703 22.4918 15.4621 22.4646L13.7821 16.7059C13.7669 16.6534 13.736 16.6069 13.6936 16.5726C13.6511 16.5382 13.5992 16.5177 13.5447 16.5139C13.2727 16.4939 13.0012 16.4717 12.7301 16.4472L10.4834 16.2426C10.4596 16.2402 10.4357 16.2444 10.4141 16.2546C10.3926 16.2648 10.3742 16.2807 10.3609 16.3005C10.3476 16.3204 10.34 16.3434 10.3388 16.3673C10.3376 16.3911 10.3429 16.4148 10.3541 16.4359C11.5694 18.7092 13.3194 20.8759 15.2501 22.5999ZM16.8981 23.8172C16.9114 23.8639 16.9514 23.8986 17.0001 23.8986C17.0237 23.8982 17.0465 23.89 17.0649 23.8753C17.0834 23.8606 17.0965 23.8402 17.1021 23.8172L19.1581 16.7686C19.1642 16.7481 19.1653 16.7265 19.1613 16.7055C19.1573 16.6845 19.1483 16.6648 19.1351 16.648C19.1219 16.6312 19.1049 16.6178 19.0855 16.609C19.066 16.6001 19.0447 16.5961 19.0234 16.5972C17.6751 16.6549 16.325 16.6549 14.9767 16.5972C14.9555 16.5961 14.9343 16.6002 14.9149 16.609C14.8955 16.6178 14.8785 16.6311 14.8653 16.6478C14.8522 16.6645 14.8432 16.6841 14.8391 16.705C14.8351 16.7259 14.8361 16.7475 14.8421 16.7679L16.8981 23.8172ZM18.5381 22.4646C18.5007 22.5912 18.6514 22.6879 18.7501 22.5999C20.6807 20.8752 22.4307 18.7092 23.6461 16.4359C23.6572 16.4149 23.6625 16.3912 23.6613 16.3675C23.6601 16.3437 23.6525 16.3207 23.6394 16.3009C23.6262 16.2811 23.6079 16.2652 23.5864 16.2549C23.5649 16.2446 23.5411 16.2404 23.5174 16.2426L21.2707 16.4472C20.9987 16.4717 20.727 16.4939 20.4554 16.5139C20.4009 16.5177 20.349 16.5382 20.3065 16.5726C20.2641 16.6069 20.2332 16.6534 20.2181 16.7059L18.5381 22.4646ZM23.5341 15.2372C23.5573 15.2352 23.5796 15.2271 23.5987 15.2137C23.6179 15.2003 23.6332 15.1822 23.6431 15.1611C23.653 15.14 23.6572 15.1166 23.6553 15.0933C23.6533 15.0701 23.6453 15.0477 23.6321 15.0286L21.4734 11.8986C21.3814 11.7653 21.2584 11.6563 21.115 11.581C20.9716 11.5058 20.812 11.4665 20.6501 11.4666H18.9901C18.9682 11.4666 18.9466 11.4719 18.9273 11.4823C18.908 11.4926 18.8915 11.5075 18.8793 11.5256C18.8671 11.5438 18.8596 11.5647 18.8574 11.5865C18.8552 11.6083 18.8584 11.6303 18.8667 11.6506L20.3714 15.3326C20.3928 15.3846 20.4301 15.4286 20.478 15.4582C20.5259 15.4878 20.5819 15.5014 20.6381 15.4972C20.8185 15.4834 20.9992 15.4679 21.1801 15.4506L23.5341 15.2372ZM17.7767 11.6306C17.7564 11.5819 17.7222 11.5403 17.6783 11.5112C17.6344 11.482 17.5828 11.4664 17.5301 11.4666H16.4701C16.4173 11.4664 16.3658 11.482 16.3219 11.5112C16.278 11.5403 16.2437 11.5819 16.2234 11.6306L14.6514 15.4026C14.6433 15.4223 14.64 15.4437 14.6418 15.465C14.6437 15.4862 14.6506 15.5068 14.6621 15.5248C14.6735 15.5428 14.6891 15.5578 14.7075 15.5686C14.726 15.5793 14.7467 15.5855 14.7681 15.5866C16.2547 15.6586 17.7454 15.6586 19.2327 15.5866C19.254 15.5854 19.2747 15.5792 19.293 15.5684C19.3114 15.5576 19.3269 15.5425 19.3383 15.5245C19.3496 15.5065 19.3565 15.486 19.3583 15.4648C19.3601 15.4436 19.3569 15.4222 19.3487 15.4026L17.7767 11.6306ZM15.1334 11.6506C15.1417 11.6303 15.1449 11.6083 15.1427 11.5865C15.1405 11.5647 15.133 11.5438 15.1208 11.5256C15.1086 11.5075 15.0921 11.4926 15.0728 11.4823C15.0535 11.4719 15.032 11.4666 15.0101 11.4666H13.3501C13.1881 11.4665 13.0286 11.5058 12.8851 11.581C12.7417 11.6563 12.6187 11.7653 12.5267 11.8986L10.3681 15.0286C10.3548 15.0477 10.3468 15.0701 10.3449 15.0933C10.3429 15.1166 10.3471 15.14 10.357 15.1611C10.367 15.1822 10.3822 15.2003 10.4014 15.2137C10.4205 15.2271 10.4428 15.2352 10.4661 15.2372L12.8201 15.4506C13.0005 15.4679 13.1812 15.4834 13.3621 15.4972C13.4182 15.5014 13.4742 15.4878 13.5221 15.4582C13.57 15.4286 13.6074 15.3846 13.6287 15.3326L15.1334 11.6506Z" fill="#FFB25F"/>
</svg>
