<svg width="16" height="18" viewBox="0 0 16 18" fill="none" xmlns="http://www.w3.org/2000/svg">
<path d="M0 16V7C0 6.68333 0.0708333 6.38333 0.2125 6.1C0.354167 5.81667 0.55 5.58333 0.8 5.4L6.8 0.9C7.15 0.633333 7.55 0.5 8 0.5C8.45 0.5 8.85 0.633333 9.2 0.9L15.2 5.4C15.45 5.58333 15.6458 5.81667 15.7875 6.1C15.9292 6.38333 16 6.68333 16 7V16C16 16.55 15.8042 17.0208 15.4125 17.4125C15.0208 17.8042 14.55 18 14 18H11C10.7167 18 10.4792 17.9042 10.2875 17.7125C10.0958 17.5208 10 17.2833 10 17V12C10 11.7167 9.90417 11.4792 9.7125 11.2875C9.52083 11.0958 9.28333 11 9 11H7C6.71667 11 6.47917 11.0958 6.2875 11.2875C6.09583 11.4792 6 11.7167 6 12V17C6 17.2833 5.90417 17.5208 5.7125 17.7125C5.52083 17.9042 5.28333 18 5 18H2C1.45 18 0.979167 17.8042 0.5875 17.4125C0.195833 17.0208 0 16.55 0 16Z" fill="#2F80ED"/>
</svg>
