<svg width="20" height="20" viewBox="0 0 20 20" fill="none" xmlns="http://www.w3.org/2000/svg">
<path d="M9 16C10.9333 16 12.5833 15.3208 13.95 13.9625C15.3167 12.6042 16 10.95 16 9C16 7.06667 15.3167 5.41667 13.95 4.05C12.5833 2.68333 10.9333 2 9 2C7.05 2 5.39583 2.68333 4.0375 4.05C2.67917 5.41667 2 7.06667 2 9C2 10.95 2.67917 12.6042 4.0375 13.9625C5.39583 15.3208 7.05 16 9 16ZM9 18C7.75 18 6.57917 17.7625 5.4875 17.2875C4.39583 16.8125 3.44583 16.1708 2.6375 15.3625C1.82917 14.5542 1.1875 13.6042 0.7125 12.5125C0.2375 11.4208 0 10.25 0 9C0 7.76667 0.2375 6.60417 0.7125 5.5125C1.1875 4.42083 1.82917 3.46667 2.6375 2.65C3.44583 1.83333 4.39583 1.1875 5.4875 0.7125C6.57917 0.2375 7.75 0 9 0C10.2333 0 11.3958 0.2375 12.4875 0.7125C13.5792 1.1875 14.5333 1.83333 15.35 2.65C16.1667 3.46667 16.8125 4.42083 17.2875 5.5125C17.7625 6.60417 18 7.76667 18 9C18 10.0667 17.825 11.075 17.475 12.025C17.125 12.975 16.6417 13.8417 16.025 14.625L19.3 17.9C19.5 18.1 19.5958 18.3333 19.5875 18.6C19.5792 18.8667 19.475 19.1 19.275 19.3C19.075 19.4833 18.8417 19.575 18.575 19.575C18.3083 19.575 18.075 19.4833 17.875 19.3L14.6 16.05C13.8167 16.6667 12.95 17.1458 12 17.4875C11.05 17.8292 10.05 18 9 18Z" fill="#3F4B60"/>
</svg>
