<svg width="17" height="17" viewBox="0 0 17 17" fill="none" xmlns="http://www.w3.org/2000/svg">
<path d="M8.13208 8.96387C7.03208 8.96387 6.09041 8.5722 5.30708 7.78887C4.52375 7.00553 4.13208 6.06387 4.13208 4.96387C4.13208 3.86387 4.52375 2.9222 5.30708 2.13887C6.09041 1.35553 7.03208 0.963867 8.13208 0.963867C9.23208 0.963867 10.1737 1.35553 10.9571 2.13887C11.7404 2.9222 12.1321 3.86387 12.1321 4.96387C12.1321 6.06387 11.7404 7.00553 10.9571 7.78887C10.1737 8.5722 9.23208 8.96387 8.13208 8.96387ZM0.13208 14.9639V14.1639C0.13208 13.5972 0.277913 13.0764 0.56958 12.6014C0.861247 12.1264 1.24875 11.7639 1.73208 11.5139C2.76541 10.9972 3.81541 10.6097 4.88208 10.3514C5.94875 10.093 7.03208 9.96387 8.13208 9.96387C9.23208 9.96387 10.3154 10.093 11.3821 10.3514C12.4487 10.6097 13.4987 10.9972 14.5321 11.5139C15.0154 11.7639 15.4029 12.1264 15.6946 12.6014C15.9862 13.0764 16.1321 13.5972 16.1321 14.1639V14.9639C16.1321 15.5139 15.9362 15.9847 15.5446 16.3764C15.1529 16.768 14.6821 16.9639 14.1321 16.9639H2.13208C1.58208 16.9639 1.11125 16.768 0.71958 16.3764C0.327913 15.9847 0.13208 15.5139 0.13208 14.9639Z" fill="#3F4B60"/>
</svg>
